<?xml version="1.0" encoding="utf-8"?>
<!-- Generator: Adobe Illustrator 21.1.0, SVG Export Plug-In . SVG Version: 6.00 Build 0)  -->
<svg version="1.1" id="Layer_1" xmlns="http://www.w3.org/2000/svg" xmlns:xlink="http://www.w3.org/1999/xlink" x="0px" y="0px"
	 viewBox="0 0 525.3 66" style="enable-background:new 0 0 525.3 66;" xml:space="preserve">
<style type="text/css">
	.st0{fill:#3D6D98;}
	.st1{fill:#899099;}
</style>
<g>
	<g>
		<path class="st0" d="M50.9,39.8c-0.9,2.8-2.1,5.1-3.8,6.9l5.6,5.2l-5.3,5.5l-5.8-5.5c-1.8,1.1-3.3,1.8-4.6,2.3
			c-2.2,0.7-4.8,1.1-7.8,1.1c-6.3,0-11.5-1.9-15.7-5.7c-5-4.5-7.5-11.2-7.5-20c0-8.9,2.6-15.6,7.7-20.1C17.9,5.9,23.1,4,29.3,4
			c6.3,0,11.5,2,15.8,5.9c4.9,4.5,7.4,10.9,7.4,19C52.5,33.2,51.9,36.9,50.9,39.8z M32.5,46.3c0.6-0.2,1.3-0.4,2.3-0.8l-4.9-4.7
			l5.2-5.4L40,40c0.8-1.6,1.3-3,1.6-4.1c0.5-1.8,0.7-3.8,0.7-6.2c0-5.4-1.1-9.6-3.3-12.6c-2.2-3-5.5-4.5-9.7-4.5
			c-4,0-7.2,1.4-9.6,4.3c-2.4,2.8-3.6,7.1-3.6,12.8c0,6.6,1.7,11.4,5.1,14.3c2.2,1.9,4.9,2.8,8,2.8C30.3,46.7,31.4,46.6,32.5,46.3z"
			/>
		<path class="st0" d="M66.4,18.1v21.6c0,2,0.2,3.6,0.7,4.6c0.9,1.8,2.5,2.7,5,2.7c3.2,0,5.4-1.3,6.5-3.9c0.6-1.4,0.9-3.3,0.9-5.6
			V18.1h9.5v35.8H80v-5.1c-0.1,0.1-0.3,0.4-0.7,1c-0.3,0.5-0.8,1-1.2,1.4c-1.5,1.3-2.9,2.2-4.2,2.7c-1.4,0.5-3,0.7-4.8,0.7
			c-5.3,0-8.9-1.9-10.7-5.7c-1-2.1-1.5-5.2-1.5-9.3V18.1H66.4z"/>
		<path class="st0" d="M105.5,13.8H96V5.2h9.5V13.8z M96,18.1h9.5v35.8H96V18.1z"/>
		<path class="st0" d="M133.6,31c-0.2-1.3-0.6-2.5-1.4-3.6c-1.1-1.4-2.7-2.2-4.9-2.2c-3.2,0-5.3,1.6-6.5,4.7
			c-0.6,1.7-0.9,3.9-0.9,6.6c0,2.6,0.3,4.7,0.9,6.3c1.1,3,3.2,4.5,6.3,4.5c2.2,0,3.8-0.6,4.7-1.8c0.9-1.2,1.5-2.7,1.7-4.6h9.6
			c-0.2,2.8-1.3,5.5-3.1,8.1c-2.9,4.1-7.3,6.1-13.1,6.1c-5.8,0-10-1.7-12.7-5.1c-2.7-3.4-4.1-7.9-4.1-13.3c0-6.1,1.5-10.9,4.5-14.4
			c3-3.4,7.2-5.1,12.4-5.1c4.5,0,8.2,1,11,3c2.9,2,4.6,5.6,5.1,10.7H133.6z"/>
		<path class="st0" d="M147.2,5.6h9.2v26.1l11.8-13.5h11.7L167,31.6l13.3,22.3H169l-8.7-15.3l-3.9,4v11.3h-9.2V5.6z"/>
		<path class="st0" d="M264.7,33c-2.8,2.4-6.9,3.6-12.2,3.6h-10.1v17.4h-10.1V5.5h20.8c4.8,0,8.6,1.2,11.5,3.7
			c2.9,2.5,4.3,6.4,4.3,11.6C269,26.6,267.6,30.6,264.7,33z M257,15.5c-1.3-1.1-3.1-1.6-5.4-1.6h-9.1v14.3h9.1
			c2.3,0,4.1-0.6,5.4-1.7c1.3-1.2,1.9-3,1.9-5.5C258.9,18.4,258.3,16.6,257,15.5z"/>
		<path class="st0" d="M293.9,17.3c0.1,0,0.4,0,0.8,0v9.6c-0.6-0.1-1.1-0.1-1.6-0.1c-0.5,0-0.8,0-1.1,0c-3.8,0-6.3,1.2-7.6,3.7
			c-0.7,1.4-1.1,3.5-1.1,6.4v17.1h-9.4V18.1h8.9v6.2c1.4-2.4,2.7-4,3.8-4.9c1.8-1.5,4-2.2,6.8-2.2C293.6,17.3,293.8,17.3,293.9,17.3
			z"/>
		<path class="st0" d="M321.2,18.8c2.5,1.1,4.6,2.9,6.2,5.3c1.5,2.1,2.4,4.6,2.9,7.4c0.3,1.6,0.4,4,0.3,7.1h-26.1
			c0.1,3.6,1.4,6.1,3.7,7.6c1.4,0.9,3.2,1.3,5.2,1.3c2.1,0,3.9-0.5,5.2-1.6c0.7-0.6,1.4-1.4,1.9-2.5h9.6c-0.3,2.1-1.4,4.3-3.5,6.5
			c-3.2,3.5-7.7,5.2-13.5,5.2c-4.8,0-9-1.5-12.6-4.4c-3.6-2.9-5.5-7.7-5.5-14.3c0-6.2,1.6-11,4.9-14.3c3.3-3.3,7.6-5,12.8-5
			C315.9,17.2,318.7,17.7,321.2,18.8z M307.2,26.9c-1.3,1.4-2.2,3.2-2.5,5.5h16.1c-0.2-2.5-1-4.4-2.5-5.7c-1.5-1.3-3.3-1.9-5.6-1.9
			C310.4,24.9,308.5,25.6,307.2,26.9z"/>
		<path class="st0" d="M340.2,42.5c0.2,1.7,0.6,2.8,1.3,3.6c1.2,1.2,3.3,1.9,6.5,1.9c1.8,0,3.3-0.3,4.4-0.8c1.1-0.5,1.6-1.4,1.6-2.5
			c0-1.1-0.4-1.9-1.3-2.4c-0.9-0.5-4.1-1.5-9.8-2.8c-4.1-1-6.9-2.3-8.6-3.8c-1.7-1.5-2.5-3.6-2.5-6.4c0-3.3,1.3-6.2,3.9-8.5
			c2.6-2.4,6.3-3.6,11-3.6c4.5,0,8.1,0.9,11,2.7c2.8,1.8,4.4,4.9,4.9,9.3h-9.4c-0.1-1.2-0.5-2.2-1-2.9c-1-1.3-2.8-1.9-5.3-1.9
			c-2,0-3.5,0.3-4.4,1c-0.9,0.6-1.3,1.4-1.3,2.2c0,1.1,0.5,1.9,1.4,2.3c0.9,0.5,4.2,1.4,9.8,2.6c3.7,0.9,6.5,2.2,8.4,4
			c1.8,1.8,2.8,4,2.8,6.7c0,3.6-1.3,6.4-4,8.7c-2.6,2.2-6.7,3.4-12.3,3.4c-5.6,0-9.8-1.2-12.5-3.6c-2.7-2.4-4-5.4-4-9.1H340.2z"/>
		<path class="st0" d="M375.3,42.5c0.2,1.7,0.6,2.8,1.3,3.6c1.2,1.2,3.3,1.9,6.5,1.9c1.8,0,3.3-0.3,4.4-0.8c1.1-0.5,1.6-1.4,1.6-2.5
			c0-1.1-0.4-1.9-1.3-2.4c-0.9-0.5-4.1-1.5-9.8-2.8c-4.1-1-6.9-2.3-8.6-3.8c-1.7-1.5-2.5-3.6-2.5-6.4c0-3.3,1.3-6.2,3.9-8.5
			c2.6-2.4,6.3-3.6,11-3.6c4.5,0,8.1,0.9,11,2.7c2.8,1.8,4.4,4.9,4.9,9.3h-9.4c-0.1-1.2-0.5-2.2-1-2.9c-1-1.3-2.8-1.9-5.3-1.9
			c-2,0-3.5,0.3-4.4,1c-0.9,0.6-1.3,1.4-1.3,2.2c0,1.1,0.5,1.9,1.4,2.3c0.9,0.5,4.2,1.4,9.8,2.6c3.7,0.9,6.5,2.2,8.4,4
			c1.8,1.8,2.8,4,2.8,6.7c0,3.6-1.3,6.4-4,8.7c-2.6,2.2-6.7,3.4-12.3,3.4c-5.6,0-9.8-1.2-12.5-3.6c-2.7-2.4-4-5.4-4-9.1H375.3z"/>
		<path class="st0" d="M426.5,18.8c2.5,1.1,4.6,2.9,6.2,5.3c1.5,2.1,2.4,4.6,2.9,7.4c0.3,1.6,0.4,4,0.3,7.1h-26.1
			c0.1,3.6,1.4,6.1,3.7,7.6c1.4,0.9,3.2,1.3,5.2,1.3c2.1,0,3.9-0.5,5.2-1.6c0.7-0.6,1.4-1.4,1.9-2.5h9.6c-0.3,2.1-1.4,4.3-3.5,6.5
			c-3.2,3.5-7.7,5.2-13.5,5.2c-4.8,0-9-1.5-12.6-4.4c-3.6-2.9-5.5-7.7-5.5-14.3c0-6.2,1.6-11,4.9-14.3c3.3-3.3,7.6-5,12.8-5
			C421.2,17.2,424,17.7,426.5,18.8z M412.5,26.9c-1.3,1.4-2.2,3.2-2.5,5.5h16.1c-0.2-2.5-1-4.4-2.5-5.7c-1.5-1.3-3.3-1.9-5.6-1.9
			C415.6,24.9,413.8,25.6,412.5,26.9z"/>
		<path class="st1" d="M438.1,53.9v-3.7h3.1v3.7H438.1z"/>
		<path class="st1" d="M462.6,39c-0.5-1.6-1.2-2.9-2.3-3.8c-1.1-0.9-2.5-1.4-4.2-1.4c-1.3,0-2.4,0.3-3.3,0.8
			c-0.9,0.5-1.7,1.2-2.3,2.1c-0.6,0.9-1,1.9-1.3,3c-0.3,1.1-0.4,2.2-0.4,3.4c0,1.2,0.1,2.3,0.4,3.4c0.3,1.1,0.7,2.1,1.3,3
			c0.6,0.9,1.3,1.6,2.3,2.1c0.9,0.5,2.1,0.8,3.4,0.8c1.9,0,3.4-0.5,4.5-1.6c1.1-1,1.9-2.5,2.2-4.3h2.7c-0.2,1.2-0.6,2.3-1.1,3.3
			c-0.5,1-1.1,1.9-1.9,2.6c-0.8,0.7-1.7,1.3-2.8,1.7c-1.1,0.4-2.3,0.6-3.7,0.6c-1.7,0-3.2-0.3-4.5-0.9c-1.3-0.6-2.3-1.4-3.1-2.4
			c-0.8-1-1.4-2.2-1.8-3.6c-0.4-1.4-0.6-2.9-0.6-4.5c0-1.5,0.2-3,0.7-4.4c0.4-1.4,1.1-2.6,1.9-3.7c0.8-1.1,1.9-1.9,3.1-2.6
			c1.3-0.6,2.7-0.9,4.3-0.9c2.5,0,4.6,0.6,6.1,1.8c1.6,1.2,2.5,3.1,2.9,5.7H462.6z"/>
		<path class="st1" d="M477.8,54.5c-1.4,0-2.7-0.3-3.9-0.8c-1.2-0.5-2.3-1.2-3.2-2.2c-0.9-1-1.6-2.2-2.2-3.6c-0.5-1.4-0.8-3.1-0.8-5
			c0-1.6,0.2-3.1,0.6-4.5c0.4-1.4,1.1-2.6,1.9-3.6c0.8-1,1.9-1.9,3.2-2.5c1.3-0.6,2.7-0.9,4.4-0.9c1.7,0,3.2,0.3,4.5,0.9
			c1.3,0.6,2.3,1.4,3.2,2.4c0.8,1,1.5,2.2,1.9,3.6c0.4,1.4,0.6,2.9,0.6,4.5c0,1.7-0.2,3.3-0.7,4.7c-0.5,1.4-1.2,2.6-2,3.6
			s-2,1.8-3.2,2.3C480.7,54.3,479.3,54.5,477.8,54.5z M485.2,43c0-1.3-0.1-2.5-0.4-3.6c-0.3-1.1-0.7-2.1-1.3-2.9
			c-0.6-0.8-1.3-1.5-2.3-2c-0.9-0.5-2.1-0.7-3.4-0.7c-1.3,0-2.5,0.3-3.4,0.8c-0.9,0.5-1.7,1.2-2.3,2.1c-0.6,0.9-1,1.8-1.3,3
			c-0.3,1.1-0.4,2.3-0.4,3.4c0,1.3,0.2,2.6,0.5,3.7c0.3,1.1,0.8,2.1,1.4,2.9c0.6,0.8,1.4,1.4,2.3,1.9c0.9,0.5,2,0.7,3.2,0.7
			c1.3,0,2.5-0.3,3.4-0.8c0.9-0.5,1.7-1.2,2.3-2.1c0.6-0.9,1-1.9,1.3-3C485.1,45.3,485.2,44.2,485.2,43z"/>
		<path class="st1" d="M493.3,53.9h-2.5V32.1h2.5v3.3h0.1c0.6-1.3,1.6-2.2,2.8-2.9c1.2-0.7,2.5-1,4-1c1,0,1.9,0.1,2.6,0.3
			c0.7,0.2,1.3,0.5,1.8,0.9c0.5,0.4,0.9,0.8,1.2,1.3c0.3,0.5,0.6,1.1,0.8,1.6c0.7-1.4,1.7-2.5,2.9-3.2c1.2-0.7,2.6-1,4.2-1
			c1.5,0,2.7,0.2,3.6,0.7c0.9,0.5,1.6,1.1,2,1.9c0.5,0.8,0.8,1.7,0.9,2.8c0.2,1,0.2,2.1,0.2,3.2v13.8h-2.5V38.8c0-1.6-0.3-2.8-1-3.7
			c-0.7-0.9-1.9-1.3-3.7-1.3c-0.9,0-1.8,0.2-2.7,0.6c-0.9,0.4-1.6,1-2.3,1.9c-0.3,0.4-0.5,0.8-0.7,1.3c-0.2,0.5-0.3,1-0.4,1.5
			c-0.1,0.5-0.2,1.1-0.2,1.6c0,0.5-0.1,1-0.1,1.5v11.8h-2.5V38.8c0-1.6-0.3-2.8-1-3.7c-0.7-0.9-1.9-1.3-3.7-1.3
			c-0.9,0-1.8,0.2-2.7,0.6c-0.9,0.4-1.6,1-2.3,1.9c-0.3,0.4-0.5,0.8-0.7,1.3c-0.2,0.5-0.3,1-0.4,1.5c-0.1,0.5-0.2,1.1-0.2,1.6
			c0,0.5-0.1,1-0.1,1.5V53.9z"/>
	</g>
	<g>
		<path class="st1" d="M213.8,39.7l-1.7-13.6L194,32.8l0,0c-0.7,0.2-1.1,1.3-0.9,2.7c0.2,1.4,0.9,2.5,1.6,2.4c0,0,0,0,0,0
			L213.8,39.7z"/>
		<path class="st0" d="M219.6,19l-7.9-14.4l-29,23.2l0,0c-0.4,0.3-0.4,1.1,0.1,2c0.5,0.9,1.2,1.3,1.7,1.1c0,0,0,0,0,0L219.6,19z"/>
		<path class="st0" d="M218.8,62.4l4.6-15.7l-37.2-4.1l0,0c-0.5-0.1-1.1,0.6-1.3,1.5c-0.3,0.9-0.1,1.8,0.4,2c0,0,0,0,0,0L218.8,62.4
			z"/>
	</g>
</g>
</svg>
