<?xml version="1.0" encoding="utf-8"?>
<!-- Generator: Adobe Illustrator 21.1.0, SVG Export Plug-In . SVG Version: 6.00 Build 0)  -->
<svg version="1.1" id="Layer_1" xmlns="http://www.w3.org/2000/svg" xmlns:xlink="http://www.w3.org/1999/xlink" x="0px" y="0px"
	 viewBox="0 0 288 63.7" style="enable-background:new 0 0 288 63.7;" xml:space="preserve">
<style type="text/css">
	.st0{fill:#3D6D98;}
	.st1{fill:#899099;}
</style>
<path class="st0" d="M31.7,27.3c-0.6,1.8-1.4,3.3-2.5,4.6l3.7,3.4l-3.5,3.6l-3.8-3.6c-1.2,0.7-2.2,1.2-3,1.5
	c-1.4,0.5-3.1,0.7-5.1,0.7c-4.2,0-7.6-1.2-10.3-3.7c-3.3-3-4.9-7.4-4.9-13.1c0-5.8,1.7-10.2,5.1-13.2C10,5,13.5,3.8,17.5,3.8
	c4.1,0,7.6,1.3,10.4,3.9c3.2,3,4.8,7.2,4.8,12.5C32.7,23,32.4,25.4,31.7,27.3z M19.6,31.6c0.4-0.1,0.9-0.3,1.5-0.5L17.9,28l3.4-3.6
	l3.2,3c0.5-1,0.9-1.9,1.1-2.7c0.3-1.2,0.5-2.5,0.5-4.1c0-3.6-0.7-6.3-2.2-8.3c-1.5-2-3.6-2.9-6.4-2.9c-2.6,0-4.7,0.9-6.3,2.8
	c-1.6,1.9-2.4,4.7-2.4,8.4c0,4.4,1.1,7.5,3.4,9.4c1.5,1.2,3.2,1.8,5.2,1.8C18.2,31.9,18.9,31.8,19.6,31.6z"/>
<path class="st0" d="M41.9,13.1v14.2c0,1.3,0.2,2.3,0.5,3c0.6,1.2,1.7,1.8,3.3,1.8c2.1,0,3.5-0.8,4.3-2.5c0.4-0.9,0.6-2.1,0.6-3.7
	V13.1h6.2v23.5h-6v-3.3c-0.1,0.1-0.2,0.3-0.4,0.6c-0.2,0.4-0.5,0.7-0.8,1c-1,0.9-1.9,1.5-2.8,1.8c-0.9,0.3-1.9,0.5-3.2,0.5
	c-3.5,0-5.8-1.3-7-3.8c-0.7-1.4-1-3.4-1-6.1V13.1H41.9z"/>
<path class="st0" d="M67.6,10.3h-6.2V4.6h6.2V10.3z M61.3,13.1h6.2v23.5h-6.2V13.1z"/>
<path class="st0" d="M86.1,21.5c-0.1-0.9-0.4-1.7-0.9-2.4c-0.7-1-1.8-1.4-3.2-1.4c-2.1,0-3.5,1-4.3,3.1c-0.4,1.1-0.6,2.5-0.6,4.4
	c0,1.7,0.2,3.1,0.6,4.2c0.7,2,2.1,2.9,4.2,2.9c1.4,0,2.5-0.4,3.1-1.2c0.6-0.8,1-1.8,1.1-3h6.3c-0.1,1.9-0.8,3.6-2,5.3
	c-1.9,2.7-4.8,4-8.6,4c-3.8,0-6.6-1.1-8.4-3.4c-1.8-2.2-2.7-5.2-2.7-8.7c0-4,1-7.2,3-9.4c2-2.2,4.7-3.4,8.2-3.4c3,0,5.4,0.7,7.3,2
	c1.9,1.3,3,3.7,3.3,7H86.1z"/>
<path class="st0" d="M95,4.9h6v17.2l7.8-8.9h7.7L108,22l8.8,14.7h-7.5l-5.7-10.1l-2.6,2.7v7.4h-6V4.9z"/>
<path class="st0" d="M172.2,22.8c-1.9,1.6-4.5,2.3-8,2.3h-6.6v11.4H151V4.8h13.7c3.2,0,5.7,0.8,7.5,2.5c1.9,1.6,2.8,4.2,2.8,7.6
	C175,18.6,174.1,21.3,172.2,22.8z M167.1,11.4c-0.8-0.7-2-1.1-3.5-1.1h-6v9.4h6c1.5,0,2.7-0.4,3.5-1.1c0.8-0.8,1.3-2,1.3-3.6
	C168.4,13.3,168,12.1,167.1,11.4z"/>
<path class="st0" d="M191.4,12.5c0.1,0,0.3,0,0.5,0v6.3c-0.4,0-0.7-0.1-1-0.1c-0.3,0-0.5,0-0.7,0c-2.5,0-4.1,0.8-5,2.4
	c-0.5,0.9-0.7,2.3-0.7,4.2v11.3h-6.2V13.1h5.9v4.1c1-1.6,1.8-2.6,2.5-3.2c1.2-1,2.6-1.4,4.5-1.4C191.2,12.5,191.3,12.5,191.4,12.5z"
	/>
<path class="st0" d="M209.3,13.6c1.6,0.7,3,1.9,4.1,3.5c1,1.4,1.6,3,1.9,4.9c0.2,1.1,0.2,2.6,0.2,4.7h-17.2c0.1,2.4,0.9,4,2.5,5
	c0.9,0.6,2.1,0.9,3.4,0.9c1.4,0,2.5-0.4,3.4-1.1c0.5-0.4,0.9-0.9,1.3-1.6h6.3c-0.2,1.4-0.9,2.8-2.3,4.3c-2.1,2.3-5.1,3.4-8.9,3.4
	c-3.1,0-5.9-1-8.3-2.9c-2.4-1.9-3.6-5.1-3.6-9.4c0-4.1,1.1-7.2,3.2-9.4c2.2-2.2,5-3.3,8.4-3.3C205.8,12.5,207.7,12.8,209.3,13.6z
	 M200.1,18.9c-0.9,0.9-1.4,2.1-1.6,3.6h10.6c-0.1-1.6-0.7-2.9-1.6-3.7c-1-0.8-2.2-1.3-3.7-1.3C202.2,17.5,201,18,200.1,18.9z"/>
<path class="st0" d="M221.8,29.1c0.1,1.1,0.4,1.9,0.8,2.3c0.8,0.8,2.2,1.2,4.3,1.2c1.2,0,2.2-0.2,2.9-0.5c0.7-0.4,1.1-0.9,1.1-1.6
	c0-0.7-0.3-1.2-0.9-1.6c-0.6-0.4-2.7-1-6.4-1.9c-2.7-0.7-4.6-1.5-5.7-2.5c-1.1-1-1.6-2.4-1.6-4.2c0-2.2,0.9-4,2.6-5.6
	c1.7-1.6,4.1-2.3,7.2-2.3c2.9,0,5.3,0.6,7.2,1.8c1.9,1.2,2.9,3.2,3.2,6.1h-6.2c-0.1-0.8-0.3-1.4-0.7-1.9c-0.7-0.8-1.8-1.3-3.5-1.3
	c-1.3,0-2.3,0.2-2.9,0.6c-0.6,0.4-0.9,0.9-0.9,1.5c0,0.7,0.3,1.2,0.9,1.5c0.6,0.3,2.7,0.9,6.4,1.7c2.5,0.6,4.3,1.4,5.5,2.6
	c1.2,1.2,1.8,2.7,1.8,4.4c0,2.3-0.9,4.2-2.6,5.7c-1.7,1.5-4.4,2.2-8.1,2.2c-3.7,0-6.4-0.8-8.2-2.3c-1.8-1.6-2.7-3.6-2.7-6H221.8z"/>
<path class="st0" d="M244.9,29.1c0.1,1.1,0.4,1.9,0.8,2.3c0.8,0.8,2.2,1.2,4.3,1.2c1.2,0,2.2-0.2,2.9-0.5c0.7-0.4,1.1-0.9,1.1-1.6
	c0-0.7-0.3-1.2-0.9-1.6c-0.6-0.4-2.7-1-6.4-1.9c-2.7-0.7-4.6-1.5-5.7-2.5c-1.1-1-1.6-2.4-1.6-4.2c0-2.2,0.9-4,2.6-5.6
	c1.7-1.6,4.1-2.3,7.2-2.3c2.9,0,5.3,0.6,7.2,1.8c1.9,1.2,2.9,3.2,3.2,6.1h-6.2c-0.1-0.8-0.3-1.4-0.7-1.9c-0.7-0.8-1.8-1.3-3.5-1.3
	c-1.3,0-2.3,0.2-2.9,0.6c-0.6,0.4-0.9,0.9-0.9,1.5c0,0.7,0.3,1.2,0.9,1.5c0.6,0.3,2.7,0.9,6.4,1.7c2.5,0.6,4.3,1.4,5.5,2.6
	c1.2,1.2,1.8,2.7,1.8,4.4c0,2.3-0.9,4.2-2.6,5.7c-1.7,1.5-4.4,2.2-8.1,2.2c-3.7,0-6.4-0.8-8.2-2.3c-1.8-1.6-2.7-3.6-2.7-6H244.9z"/>
<path class="st0" d="M278.5,13.6c1.6,0.7,3,1.9,4.1,3.5c1,1.4,1.6,3,1.9,4.9c0.2,1.1,0.2,2.6,0.2,4.7h-17.2c0.1,2.4,0.9,4,2.5,5
	c0.9,0.6,2.1,0.9,3.4,0.9c1.4,0,2.5-0.4,3.4-1.1c0.5-0.4,0.9-0.9,1.3-1.6h6.3c-0.2,1.4-0.9,2.8-2.3,4.3c-2.1,2.3-5.1,3.4-8.9,3.4
	c-3.1,0-5.9-1-8.3-2.9c-2.4-1.9-3.6-5.1-3.6-9.4c0-4.1,1.1-7.2,3.2-9.4c2.2-2.2,5-3.3,8.4-3.3C275,12.5,276.9,12.8,278.5,13.6z
	 M269.3,18.9c-0.9,0.9-1.4,2.1-1.6,3.6h10.6c-0.1-1.6-0.7-2.9-1.6-3.7c-1-0.8-2.2-1.3-3.7-1.3C271.4,17.5,270.2,18,269.3,18.9z"/>
<path class="st1" d="M139.4,27.3l-1.1-8.9l-11.9,4.3l0,0c-0.5,0.1-0.7,0.9-0.6,1.8c0.1,0.9,0.6,1.6,1.1,1.6c0,0,0,0,0,0L139.4,27.3z
	"/>
<path class="st0" d="M143.3,13.7l-5.2-9.4l-19,15.3l0,0c-0.3,0.2-0.2,0.7,0.1,1.3c0.3,0.6,0.8,0.9,1.1,0.7c0,0,0,0,0,0L143.3,13.7z"
	/>
<path class="st0" d="M142.7,42.2l3-10.3l-24.5-2.7l0,0c-0.3,0-0.7,0.4-0.9,1c-0.2,0.6-0.1,1.2,0.3,1.3c0,0,0,0,0,0L142.7,42.2z"/>
<path class="st1" d="M228.4,56.8c0-1,0.7-1.7,1.7-1.7c1,0,1.6,0.7,1.6,1.7c0,1-0.6,1.7-1.7,1.7C229.1,58.5,228.4,57.8,228.4,56.8z"
	/>
<path class="st1" d="M243.3,57.7c-0.6,0.3-2.1,0.8-3.9,0.8c-4,0-6.7-2.7-6.7-6.8c0-4.1,2.8-7.1,7.2-7.1c1.4,0,2.7,0.4,3.4,0.7
	l-0.6,1.9c-0.6-0.3-1.5-0.6-2.8-0.6c-3.1,0-4.7,2.3-4.7,5.1c0,3.1,2,5,4.7,5c1.4,0,2.3-0.4,3-0.7L243.3,57.7z"/>
<path class="st1" d="M257.2,51.4c0,5-3.4,7.1-6.7,7.1c-3.6,0-6.4-2.7-6.4-6.9c0-4.5,2.9-7.1,6.7-7.1
	C254.5,44.5,257.2,47.3,257.2,51.4z M246.5,51.5c0,2.9,1.7,5.2,4.1,5.2c2.3,0,4.1-2.2,4.1-5.2c0-2.3-1.1-5.2-4-5.2
	C247.8,46.3,246.5,49,246.5,51.5z"/>
<path class="st1" d="M259.3,48.4c0-1.4,0-2.5-0.1-3.6h2.1l0.1,2.2h0.1c0.7-1.3,2-2.5,4.2-2.5c1.8,0,3.2,1.1,3.8,2.7h0.1
	c0.4-0.7,0.9-1.3,1.5-1.7c0.8-0.6,1.7-0.9,3-0.9c1.8,0,4.4,1.2,4.4,5.8v7.9H276v-7.6c0-2.6-0.9-4.1-2.9-4.1c-1.4,0-2.5,1-2.9,2.2
	c-0.1,0.3-0.2,0.8-0.2,1.2v8.3h-2.4v-8c0-2.1-0.9-3.7-2.8-3.7c-1.5,0-2.6,1.2-3,2.4c-0.1,0.4-0.2,0.8-0.2,1.2v8.1h-2.4V48.4z"/>
</svg>
